<?xml version="1.0" encoding="utf-8"?>
<!-- Generator: Adobe Illustrator 25.2.1, SVG Export Plug-In . SVG Version: 6.00 Build 0)  -->
<svg version="1.1" id="Layer_1" xmlns="http://www.w3.org/2000/svg" xmlns:xlink="http://www.w3.org/1999/xlink" x="0px" y="0px"
	 viewBox="0 0 1500 1500" style="enable-background:new 0 0 1500 1500;" xml:space="preserve">
<style type="text/css">
	.st0{fill:#2B3C73;}
</style>
<g>
	<path class="st0" d="M349.8,718.2H100.2C100.2,206.9,525,0,816.7,0s463.5,151.4,573.2,273.8C1170.4,100.5,893,19.6,590.2,227.7
		C340.5,398.7,349.8,718.2,349.8,718.2"/>
	<path class="st0" d="M991.9,374.9l121-218.3c447.2,248,422.2,719.8,280.8,974.9s-357.1,331.9-517.5,368.6
		c258.1-107.9,463.3-311.4,428.2-677C1275.8,521.8,991.9,374.9,991.9,374.9"/>
	<path class="st0" d="M969,1117.1c0,0,62.5,108,124.8,216.2c-442.9,255.6-834.4-8.8-980.2-261.4C-32.2,819.3,13.1,594.8,64.2,438.6
		C23.9,715.3,92.6,996,424.1,1154.3C696.9,1284.9,969,1117.1,969,1117.1"/>
</g>
</svg>
